<svg xmlns="http://www.w3.org/2000/svg" viewBox="0 0 300 390" width="300" height="390">
      <rect width="300" height="390" rx="10" fill="#EEEEEC"/>
      <rect x="1" y="1" width="298" height="388" rx="9" fill="none" stroke="#D8D8D4" stroke-width="1.5"/>
      <rect x="20" y="24" width="260" height="150" rx="6" fill="#F5F5F2" stroke="#D8D8D4" stroke-width="1"/>
      <!-- Color swatch tokens -->
      <g transform="translate(36, 44)">
        <rect x="0" y="0" width="46" height="46" rx="6" fill="#181818"/>
        <rect x="56" y="0" width="46" height="46" rx="6" fill="#666666"/>
        <rect x="112" y="0" width="46" height="46" rx="6" fill="#D8D8D4"/>
        <rect x="168" y="0" width="46" height="46" rx="6" fill="#8614FF"/>
        <text x="23" y="62" font-family="monospace" font-size="8" fill="#666666" text-anchor="middle">#181818</text>
        <text x="79" y="62" font-family="monospace" font-size="8" fill="#666666" text-anchor="middle">#666666</text>
        <text x="135" y="62" font-family="monospace" font-size="8" fill="#666666" text-anchor="middle">#D8D8D4</text>
        <text x="191" y="62" font-family="monospace" font-size="8" fill="#8614FF" text-anchor="middle">#8614FF</text>
      </g>
      <!-- Typography specimen -->
      <text x="24" y="210" font-family="sans-serif" font-size="28" font-weight="700" fill="#181818">Aa Bb 09</text>
      <text x="24" y="235" font-family="monospace" font-size="11" fill="#666666">DM SANS / EDITORIAL TOKEN</text>
      <line x1="24" y1="255" x2="276" y2="255" stroke="#D8D8D4" stroke-width="1"/>
      <!-- Grid specs -->
      <text x="24" y="280" font-family="monospace" font-size="10" fill="#181818">BASE UNIT: 8PX</text>
      <text x="24" y="300" font-family="monospace" font-size="10" fill="#181818">RADIUS: 6PX / 12PX</text>
      <text x="24" y="320" font-family="monospace" font-size="10" fill="#181818">SURFACE: #F5F5F2</text>
      <rect x="220" y="270" width="56" height="56" rx="8" fill="#8614FF" opacity="0.1"/>
      <rect x="228" y="278" width="40" height="40" rx="6" fill="none" stroke="#8614FF" stroke-width="2"/>
      <circle cx="150" cy="12" r="4" fill="none" stroke="#181818" stroke-width="1.5"/>
    </svg>